<svg xmlns="http://www.w3.org/2000/svg" viewBox="0 0 64 64">
  <!-- Fond cercle blanc (comme le rendu mascotte dans la nav) -->
  <circle cx="32" cy="32" r="32" fill="#FFFFFF"/>
  <!-- Mascotte oiseau vert — viewBox original de la famille Compagnon -->
  <svg x="5" y="5" width="54" height="54" viewBox="120 46 440 440">
    <!-- Plumes du dessus -->
    <ellipse cx="340" cy="104" rx="14" ry="29" fill="#1E5C3A"/>
    <ellipse cx="313" cy="114" rx="12" ry="25" fill="#1E5C3A" transform="rotate(-26 313 114)"/>
    <ellipse cx="367" cy="114" rx="12" ry="25" fill="#1E5C3A" transform="rotate(26 367 114)"/>
    <!-- Pattes -->
    <line x1="314" y1="404" x2="314" y2="436" stroke="#E0A23C" stroke-width="9" stroke-linecap="round"/>
    <line x1="366" y1="404" x2="366" y2="436" stroke="#E0A23C" stroke-width="9" stroke-linecap="round"/>
    <!-- Pieds -->
    <ellipse cx="308" cy="445" rx="24" ry="12" fill="#E0A23C"/>
    <ellipse cx="372" cy="445" rx="24" ry="12" fill="#E0A23C"/>
    <!-- Corps principal -->
    <ellipse cx="340" cy="272" rx="140" ry="150" fill="#1E5C3A"/>
    <!-- Ventre -->
    <ellipse cx="340" cy="298" rx="108" ry="120" fill="#F3F4EF"/>
    <!-- Ailes -->
    <path d="M 292 336 C 272 346, 266 384, 281 410 C 300 388, 306 354, 292 336 Z" fill="#1E5C3A"/>
    <path d="M 388 336 C 408 346, 414 384, 399 410 C 380 388, 374 354, 388 336 Z" fill="#1E5C3A"/>
    <!-- Yeux gauche -->
    <circle cx="300" cy="262" r="21" fill="#1C2A22"/>
    <circle cx="293" cy="254" r="7"  fill="#FFFFFF"/>
    <circle cx="308" cy="267" r="3.2" fill="#FFFFFF"/>
    <!-- Yeux droit -->
    <circle cx="380" cy="262" r="21" fill="#1C2A22"/>
    <circle cx="373" cy="254" r="7"  fill="#FFFFFF"/>
    <circle cx="388" cy="267" r="3.2" fill="#FFFFFF"/>
    <!-- Joues -->
    <circle cx="268" cy="314" r="17" fill="#E0A23C" opacity="0.5"/>
    <circle cx="412" cy="314" r="17" fill="#E0A23C" opacity="0.5"/>
    <!-- Bec -->
    <polygon points="340,334 322,307 358,307" fill="#E0A23C" stroke="#E0A23C" stroke-width="6" stroke-linejoin="round"/>
  </svg>
</svg>
