<svg xmlns="http://www.w3.org/2000/svg" viewBox="0 0 1200 280" width="1200" height="280">
  <defs>
    <linearGradient id="bg" x1="0%" y1="0%" x2="100%" y2="100%">
      <stop offset="0%"  stop-color="#0d0520"/>
      <stop offset="50%" stop-color="#1a0636"/>
      <stop offset="100%" stop-color="#07030f"/>
    </linearGradient>
    <linearGradient id="gt" x1="0%" y1="0%" x2="100%" y2="0%">
      <stop offset="0%"   stop-color="#c084fc"/>
      <stop offset="100%" stop-color="#7B2FBE"/>
    </linearGradient>
    <radialGradient id="halo" cx="50%" cy="50%" r="50%">
      <stop offset="0%"   stop-color="#7B2FBE" stop-opacity="0.28"/>
      <stop offset="100%" stop-color="#7B2FBE" stop-opacity="0"/>
    </radialGradient>
  </defs>

  <!-- Fond -->
  <rect width="1200" height="280" fill="url(#bg)"/>

  <!-- Grille terminale -->
  <line x1="0" y1="52"  x2="1200" y2="52"  stroke="#7B2FBE" stroke-opacity="0.07" stroke-width="1"/>
  <line x1="0" y1="104" x2="1200" y2="104" stroke="#7B2FBE" stroke-opacity="0.07" stroke-width="1"/>
  <line x1="0" y1="156" x2="1200" y2="156" stroke="#7B2FBE" stroke-opacity="0.07" stroke-width="1"/>
  <line x1="0" y1="208" x2="1200" y2="208" stroke="#7B2FBE" stroke-opacity="0.07" stroke-width="1"/>
  <line x1="52"  y1="0" x2="52"  y2="280" stroke="#7B2FBE" stroke-opacity="0.07" stroke-width="1"/>
  <line x1="104" y1="0" x2="104" y2="280" stroke="#7B2FBE" stroke-opacity="0.07" stroke-width="1"/>
  <line x1="156" y1="0" x2="156" y2="280" stroke="#7B2FBE" stroke-opacity="0.07" stroke-width="1"/>
  <line x1="260" y1="0" x2="260" y2="280" stroke="#7B2FBE" stroke-opacity="0.07" stroke-width="1"/>

  <!-- Halo violet -->
  <ellipse cx="168" cy="140" rx="105" ry="105" fill="url(#halo)"/>

  <!-- Cercle fond blanc -->
  <circle cx="168" cy="140" r="72" fill="#FFFFFF"/>

  <!-- ═══ MASCOTTE : coordonnées pré-calculées (transform: translate(168,140) scale(0.28) translate(-340,-283)) ═══ -->
  <!-- Toutes les valeurs sont des coordonnées finales — aucun transform nécessaire -->

  <!-- Plumes -->
  <ellipse cx="168" cy="89.9" rx="3.9" ry="8.1" fill="#1E5C3A"/>
  <ellipse cx="160.4" cy="92.7" rx="3.4" ry="7.0" fill="#1E5C3A" transform="rotate(-26 160.4 92.7)"/>
  <ellipse cx="175.6" cy="92.7" rx="3.4" ry="7.0" fill="#1E5C3A" transform="rotate(26 175.6 92.7)"/>

  <!-- Pattes -->
  <line x1="160.7" y1="173.9" x2="160.7" y2="182.8" stroke="#E0A23C" stroke-width="2.5" stroke-linecap="round"/>
  <line x1="175.3" y1="173.9" x2="175.3" y2="182.8" stroke="#E0A23C" stroke-width="2.5" stroke-linecap="round"/>

  <!-- Pieds -->
  <ellipse cx="159.0" cy="185.4" rx="6.7" ry="3.4" fill="#E0A23C"/>
  <ellipse cx="177.0" cy="185.4" rx="6.7" ry="3.4" fill="#E0A23C"/>

  <!-- Corps principal -->
  <ellipse cx="168" cy="136.9" rx="39.2" ry="42.0" fill="#1E5C3A"/>

  <!-- Ventre -->
  <ellipse cx="168" cy="144.2" rx="30.2" ry="33.6" fill="#F3F4EF"/>

  <!-- Aile gauche -->
  <path d="M 154.6,154.8 C 149.0,157.6 147.3,168.3 151.5,175.6 C 156.8,169.4 158.5,159.9 154.6,154.8 Z" fill="#1E5C3A"/>

  <!-- Aile droite -->
  <path d="M 181.4,154.8 C 187.0,157.6 188.7,168.3 184.5,175.6 C 179.2,169.4 177.5,159.9 181.4,154.8 Z" fill="#1E5C3A"/>

  <!-- Oeil gauche -->
  <circle cx="156.8" cy="134.1" r="5.9" fill="#1C2A22"/>
  <circle cx="154.8" cy="131.9" r="2.0" fill="#FFFFFF"/>
  <circle cx="159.0" cy="135.5" r="0.9" fill="#FFFFFF"/>

  <!-- Oeil droit -->
  <circle cx="179.2" cy="134.1" r="5.9" fill="#1C2A22"/>
  <circle cx="177.2" cy="131.9" r="2.0" fill="#FFFFFF"/>
  <circle cx="181.4" cy="135.5" r="0.9" fill="#FFFFFF"/>

  <!-- Joues -->
  <circle cx="147.8" cy="148.7" r="4.8" fill="#E0A23C" opacity="0.5"/>
  <circle cx="188.2" cy="148.7" r="4.8" fill="#E0A23C" opacity="0.5"/>

  <!-- Bec -->
  <polygon points="168,154.3 163.0,146.7 173.0,146.7" fill="#E0A23C" stroke="#E0A23C" stroke-width="1.7" stroke-linejoin="round"/>

  <!-- ═══ FIN MASCOTTE ═══ -->

  <!-- Séparateur -->
  <line x1="280" y1="60" x2="280" y2="220" stroke="#7B2FBE" stroke-opacity="0.4" stroke-width="1"/>

  <!-- Eyebrow -->
  <circle cx="304" cy="88" r="4" fill="#4ade80"/>
  <text x="316" y="93" font-family="monospace" font-size="12" fill="#c084fc" letter-spacing="2" font-weight="700">PURPLE TEAM OPERATIONS CENTER</text>

  <!-- Titre -->
  <text x="302" y="148" font-family="Arial Black, sans-serif" font-size="48" font-weight="900" fill="url(#gt)">PurpleForge</text>
  <text x="302" y="193" font-family="Arial, sans-serif" font-size="28" font-weight="400" fill="rgba(255,255,255,0.55)" letter-spacing="1">Compagnon</text>

  <!-- Tagline -->
  <text x="302" y="232" font-family="Arial, sans-serif" font-size="14" fill="rgba(255,255,255,0.35)" letter-spacing="0.5">MITRE ATT&amp;CK coverage · Sigma rules · Purple team campaigns</text>

  <!-- Badges -->
  <rect x="870" y="98"  width="90"  height="24" rx="12" fill="#3776ab" fill-opacity="0.85"/>
  <text x="915"  y="114" font-family="Arial, sans-serif" font-size="11" fill="white" text-anchor="middle" font-weight="600">Python 3.12</text>

  <rect x="970"  y="98"  width="80"  height="24" rx="12" fill="#009688" fill-opacity="0.85"/>
  <text x="1010" y="114" font-family="Arial, sans-serif" font-size="11" fill="white" text-anchor="middle" font-weight="600">FastAPI</text>

  <rect x="1060" y="98"  width="68"  height="24" rx="12" fill="#3d72d7" fill-opacity="0.85"/>
  <text x="1094" y="114" font-family="Arial, sans-serif" font-size="11" fill="white" text-anchor="middle" font-weight="600">HTMX</text>

  <rect x="870"  y="134" width="108" height="24" rx="12" fill="#4ade80" fill-opacity="0.15"/>
  <rect x="870"  y="134" width="108" height="24" rx="12" fill="none" stroke="#4ade80" stroke-opacity="0.6" stroke-width="1"/>
  <text x="924"  y="150" font-family="Arial, sans-serif" font-size="11" fill="#4ade80" text-anchor="middle" font-weight="600">64 tests ✓</text>

  <rect x="988"  y="134" width="68"  height="24" rx="12" fill="#E0A23C" fill-opacity="0.15"/>
  <rect x="988"  y="134" width="68"  height="24" rx="12" fill="none" stroke="#E0A23C" stroke-opacity="0.6" stroke-width="1"/>
  <text x="1022" y="150" font-family="Arial, sans-serif" font-size="11" fill="#E0A23C" text-anchor="middle" font-weight="600">MIT</text>

  <!-- Ligne bas -->
  <line x1="0" y1="272" x2="1200" y2="272" stroke="url(#gt)" stroke-opacity="0.3" stroke-width="2"/>
</svg>
